<svg width="56" height="56" viewBox="0 0 56 56" fill="none" xmlns="http://www.w3.org/2000/svg">
<path d="M51.3333 32.5894V23.4108C44.6677 23.4108 40.3333 16.1709 43.708 10.4228L35.6251 5.83355C32.2088 11.6528 23.7949 11.6525 20.3785 5.83331L12.2956 10.4225C15.6703 16.1708 11.3324 23.4108 4.66666 23.4108V32.5894C11.3322 32.5894 15.6666 39.8293 12.2919 45.5775L20.3748 50.1667C23.7927 44.3445 32.2107 44.3443 35.6288 50.1664L43.7117 45.5772C40.3372 39.8291 44.6679 32.5894 51.3333 32.5894Z" stroke="#00FF1D" stroke-width="2" stroke-linecap="round" stroke-linejoin="round"/>
<g clip-path="url(#clip0_56_54)">
<path fill-rule="evenodd" clip-rule="evenodd" d="M21.0351 12.0986C21.8101 12.3923 22.1976 13.2611 21.8976 14.0361V14.0423L19.8663 19.3298C19.7976 19.5111 19.8413 19.7236 19.9788 19.8611L22.9976 22.8798V21.9986C22.9976 20.0111 24.1601 18.2923 25.8413 17.4861C26.4101 17.2173 26.9976 17.6923 26.9976 18.3236V18.9986C26.9976 19.5486 27.4476 19.9986 27.9976 19.9986C28.5476 19.9986 28.9976 19.5486 28.9976 18.9986V18.3236C28.9976 17.6923 29.5851 17.2111 30.1538 17.4861C31.8351 18.2923 32.9976 20.0111 32.9976 21.9986V22.8798L36.0163 19.8548C36.1538 19.7173 36.1976 19.5111 36.1288 19.3236L34.0976 14.0361C33.8038 13.2611 34.1851 12.3986 34.9601 12.0986C35.7351 11.7986 36.5976 12.1861 36.8976 12.9611L38.9226 18.2486C39.4163 19.5423 39.1038 21.0048 38.1288 21.9798L34.5413 25.5673L39.5663 23.8923C39.7163 23.8423 39.8351 23.7236 39.8851 23.5736L41.0663 20.0236C41.3288 19.2361 42.1788 18.8111 42.9663 19.0736C43.7538 19.3361 44.1788 20.1861 43.9163 20.9736L42.7351 24.5236C42.3851 25.5673 41.5663 26.3861 40.5226 26.7361L36.7413 27.9986L40.5288 29.2611C41.5726 29.6111 42.3913 30.4298 42.7413 31.4736L43.9226 35.0236C44.1851 35.8111 43.7601 36.6611 42.9726 36.9236C42.1851 37.1861 41.3351 36.7611 41.0726 35.9736L39.8913 32.4236C39.8413 32.2736 39.7226 32.1548 39.5726 32.1048L34.5476 30.4298L38.1351 34.0173C39.1163 34.9923 39.4226 36.4548 38.9288 37.7486L36.8976 43.0298C36.6038 43.8048 35.7351 44.1861 34.9601 43.8923C34.1851 43.5986 33.7976 42.7298 34.0976 41.9548L36.1288 36.6673C36.1976 36.4861 36.1538 36.2736 36.0163 36.1361L33.9976 34.1173C33.9351 37.3798 31.2726 39.9986 27.9976 39.9986C24.7226 39.9986 22.0601 37.3736 21.9976 34.1173L19.9788 36.1423C19.8413 36.2798 19.7976 36.4861 19.8663 36.6736L21.8976 41.9611C22.1913 42.7361 21.8101 43.6048 21.0351 43.8986C20.2601 44.1923 19.3976 43.8111 19.0976 43.0361L17.0663 37.7486C16.5663 36.4611 16.8788 34.9986 17.8538 34.0173L21.4476 30.4298L16.4226 32.1048C16.2726 32.1548 16.1538 32.2736 16.1038 32.4236L14.9226 35.9736C14.6601 36.7611 13.8101 37.1861 13.0226 36.9236C12.2351 36.6611 11.8101 35.8111 12.0726 35.0236L13.2601 31.4736C13.6101 30.4298 14.4288 29.6111 15.4726 29.2611L19.2538 27.9986L15.4663 26.7361C14.4226 26.3861 13.6038 25.5673 13.2538 24.5236L12.0726 20.9736C11.8101 20.1861 12.2351 19.3361 13.0226 19.0736C13.8101 18.8111 14.6601 19.2361 14.9226 20.0236L16.1038 23.5736C16.1538 23.7236 16.2726 23.8423 16.4226 23.8923L21.4476 25.5673L17.8601 21.9798C16.8788 21.0048 16.5726 19.5423 17.0663 18.2486L19.0976 12.9611C19.3913 12.1861 20.2601 11.8048 21.0351 12.0986ZM29.1562 23.4688H29.543L31.1543 32H29.3906L29.1288 30.2012H26.1617L25.2773 32H23.3906L27.9492 23.4688H28.4121H29.1562ZM26.8386 28.8242H28.9284L28.451 25.5443L26.8386 28.8242Z" fill="#00FF1D"/>
</g>
<defs>
<clipPath id="clip0_56_54">
<rect width="32" height="32" fill="white" transform="translate(12 12)"/>
</clipPath>
</defs>
</svg>
